<mxfile host="app.diagrams.net" modified="2021-12-30T08:52:27.117Z" agent="5.0 (Windows NT 10.0; Win64; x64) AppleWebKit/537.36 (KHTML, like Gecko) Chrome/96.0.4664.110 Safari/537.36" etag="maPRqvyHBiPu0teRiA6x" version="16.1.0" type="github">
  <diagram id="1q3k9r5_5Es6EmubCpPX" name="Page-1">
    <mxGraphModel dx="1038" dy="547" grid="1" gridSize="10" guides="1" tooltips="1" connect="1" arrows="1" fold="1" page="1" pageScale="1" pageWidth="850" pageHeight="1100" math="0" shadow="0">
      <root>
        <mxCell id="0" />
        <mxCell id="1" parent="0" />
        <mxCell id="moeY1_8nxaI0vZuquioR-52" value="" style="group" vertex="1" connectable="0" parent="1">
          <mxGeometry x="560" y="120" width="80" height="111.5" as="geometry" />
        </mxCell>
        <mxCell id="moeY1_8nxaI0vZuquioR-50" value="" style="group" vertex="1" connectable="0" parent="moeY1_8nxaI0vZuquioR-52">
          <mxGeometry width="80" height="80" as="geometry" />
        </mxCell>
        <mxCell id="moeY1_8nxaI0vZuquioR-49" value="" style="whiteSpace=wrap;html=1;aspect=fixed;labelBackgroundColor=none;labelBorderColor=none;fontFamily=Georgia;fontSize=13;fontColor=#2B2B2B;strokeWidth=1;" vertex="1" parent="moeY1_8nxaI0vZuquioR-50">
          <mxGeometry width="80" height="80" as="geometry" />
        </mxCell>
        <mxCell id="moeY1_8nxaI0vZuquioR-6" value="" style="sketch=0;html=1;dashed=0;whitespace=wrap;fillColor=#2875E2;strokeColor=#ffffff;points=[[0.005,0.63,0],[0.1,0.2,0],[0.9,0.2,0],[0.5,0,0],[0.995,0.63,0],[0.72,0.99,0],[0.5,1,0],[0.28,0.99,0]];shape=mxgraph.kubernetes.icon;prIcon=pod" vertex="1" parent="moeY1_8nxaI0vZuquioR-50">
          <mxGeometry x="40" y="5" width="40" height="32" as="geometry" />
        </mxCell>
        <mxCell id="moeY1_8nxaI0vZuquioR-7" value="" style="sketch=0;html=1;dashed=0;whitespace=wrap;fillColor=#2875E2;strokeColor=#ffffff;points=[[0.005,0.63,0],[0.1,0.2,0],[0.9,0.2,0],[0.5,0,0],[0.995,0.63,0],[0.72,0.99,0],[0.5,1,0],[0.28,0.99,0]];shape=mxgraph.kubernetes.icon;prIcon=node" vertex="1" parent="moeY1_8nxaI0vZuquioR-50">
          <mxGeometry y="5" width="40" height="32" as="geometry" />
        </mxCell>
        <mxCell id="moeY1_8nxaI0vZuquioR-9" value="" style="sketch=0;pointerEvents=1;shadow=0;dashed=0;html=1;strokeColor=none;fillColor=#505050;labelPosition=center;verticalLabelPosition=bottom;verticalAlign=top;outlineConnect=0;align=center;shape=mxgraph.office.servers.cluster_server;" vertex="1" parent="moeY1_8nxaI0vZuquioR-50">
          <mxGeometry x="25" y="40" width="30" height="32" as="geometry" />
        </mxCell>
        <mxCell id="moeY1_8nxaI0vZuquioR-51" value="Kibernetes Cluster" style="text;html=1;strokeColor=none;fillColor=none;align=center;verticalAlign=middle;whiteSpace=wrap;rounded=0;labelBackgroundColor=none;labelBorderColor=none;fontFamily=Garamond;fontSize=13;fontColor=#2B2B2B;fontStyle=1" vertex="1" parent="moeY1_8nxaI0vZuquioR-52">
          <mxGeometry x="10" y="81.5" width="60" height="30" as="geometry" />
        </mxCell>
        <mxCell id="moeY1_8nxaI0vZuquioR-61" value="" style="group" vertex="1" connectable="0" parent="1">
          <mxGeometry x="70" y="160" width="462" height="480" as="geometry" />
        </mxCell>
        <mxCell id="moeY1_8nxaI0vZuquioR-3" value="" style="sketch=0;points=[[0,0,0],[0.25,0,0],[0.5,0,0],[0.75,0,0],[1,0,0],[0,1,0],[0.25,1,0],[0.5,1,0],[0.75,1,0],[1,1,0],[0,0.25,0],[0,0.5,0],[0,0.75,0],[1,0.25,0],[1,0.5,0],[1,0.75,0]];outlineConnect=0;fontColor=#232F3E;gradientColor=#945DF2;gradientDirection=north;fillColor=#5A30B5;strokeColor=#ffffff;dashed=0;verticalLabelPosition=bottom;verticalAlign=top;align=center;html=1;fontSize=12;fontStyle=0;aspect=fixed;shape=mxgraph.aws4.resourceIcon;resIcon=mxgraph.aws4.managed_streaming_for_kafka;" vertex="1" parent="moeY1_8nxaI0vZuquioR-61">
          <mxGeometry x="130" y="91.5" width="78" height="78" as="geometry" />
        </mxCell>
        <mxCell id="moeY1_8nxaI0vZuquioR-24" style="edgeStyle=orthogonalEdgeStyle;rounded=0;orthogonalLoop=1;jettySize=auto;html=1;fontSize=13;entryX=1;entryY=0.5;entryDx=0;entryDy=0;entryPerimeter=0;" edge="1" parent="moeY1_8nxaI0vZuquioR-61" source="moeY1_8nxaI0vZuquioR-17" target="moeY1_8nxaI0vZuquioR-3">
          <mxGeometry relative="1" as="geometry">
            <mxPoint x="229" y="110" as="targetPoint" />
          </mxGeometry>
        </mxCell>
        <mxCell id="moeY1_8nxaI0vZuquioR-17" value="Amazon EC2&lt;br&gt;Custom Distributed Lambda Service and Event Listener" style="sketch=0;outlineConnect=0;fontColor=#232F3E;gradientColor=none;strokeColor=#ffffff;fillColor=#232F3E;dashed=0;verticalLabelPosition=middle;verticalAlign=bottom;align=center;html=1;whiteSpace=wrap;fontSize=10;fontStyle=1;spacing=3;shape=mxgraph.aws4.productIcon;prIcon=mxgraph.aws4.ec2;labelBackgroundColor=none;labelBorderColor=none;" vertex="1" parent="moeY1_8nxaI0vZuquioR-61">
          <mxGeometry x="186.5" y="180" width="83.5" height="160" as="geometry" />
        </mxCell>
        <mxCell id="moeY1_8nxaI0vZuquioR-19" value="Read Event" style="text;html=1;strokeColor=none;fillColor=none;align=center;verticalAlign=middle;whiteSpace=wrap;rounded=0;labelBackgroundColor=none;labelBorderColor=none;fontSize=13;" vertex="1" parent="moeY1_8nxaI0vZuquioR-61">
          <mxGeometry x="230" y="130" width="60" height="30" as="geometry" />
        </mxCell>
        <mxCell id="moeY1_8nxaI0vZuquioR-23" style="edgeStyle=orthogonalEdgeStyle;rounded=0;orthogonalLoop=1;jettySize=auto;html=1;entryX=0;entryY=0.5;entryDx=0;entryDy=0;entryPerimeter=0;fontSize=13;" edge="1" parent="moeY1_8nxaI0vZuquioR-61" source="moeY1_8nxaI0vZuquioR-20" target="moeY1_8nxaI0vZuquioR-3">
          <mxGeometry relative="1" as="geometry" />
        </mxCell>
        <mxCell id="moeY1_8nxaI0vZuquioR-20" value="Amazon EC2&lt;br&gt;Custom File Storage Service and Push Event" style="sketch=0;outlineConnect=0;fontColor=#232F3E;gradientColor=none;strokeColor=#ffffff;fillColor=#232F3E;dashed=0;verticalLabelPosition=middle;verticalAlign=bottom;align=center;html=1;whiteSpace=wrap;fontSize=10;fontStyle=1;spacing=3;shape=mxgraph.aws4.productIcon;prIcon=mxgraph.aws4.ec2;labelBackgroundColor=none;labelBorderColor=none;" vertex="1" parent="moeY1_8nxaI0vZuquioR-61">
          <mxGeometry y="91.5" width="80" height="140" as="geometry" />
        </mxCell>
        <mxCell id="moeY1_8nxaI0vZuquioR-25" value="Push Event" style="text;html=1;strokeColor=none;fillColor=none;align=center;verticalAlign=middle;whiteSpace=wrap;rounded=0;labelBackgroundColor=none;labelBorderColor=none;fontSize=13;" vertex="1" parent="moeY1_8nxaI0vZuquioR-61">
          <mxGeometry x="70" y="91.5" width="60" height="30" as="geometry" />
        </mxCell>
        <mxCell id="moeY1_8nxaI0vZuquioR-33" value="" style="group" vertex="1" connectable="0" parent="moeY1_8nxaI0vZuquioR-61">
          <mxGeometry x="80" y="370" width="70" height="100" as="geometry" />
        </mxCell>
        <mxCell id="moeY1_8nxaI0vZuquioR-31" value="" style="sketch=0;html=1;aspect=fixed;strokeColor=none;shadow=0;align=center;verticalAlign=top;fillColor=#3B8DF1;shape=mxgraph.gcp2.repository_3;labelBackgroundColor=none;labelBorderColor=none;fontSize=13;" vertex="1" parent="moeY1_8nxaI0vZuquioR-33">
          <mxGeometry width="60" height="60" as="geometry" />
        </mxCell>
        <mxCell id="moeY1_8nxaI0vZuquioR-32" value="&lt;h4&gt;&lt;font style=&quot;font-size: 11px&quot; face=&quot;Georgia&quot;&gt;&lt;b&gt;Nexus3 Code Repository&lt;/b&gt;&lt;/font&gt;&lt;/h4&gt;" style="text;html=1;strokeColor=none;fillColor=none;align=center;verticalAlign=middle;whiteSpace=wrap;rounded=0;labelBackgroundColor=none;labelBorderColor=none;fontSize=13;" vertex="1" parent="moeY1_8nxaI0vZuquioR-33">
          <mxGeometry y="70.00000000000001" width="60" height="29.999999999999996" as="geometry" />
        </mxCell>
        <mxCell id="moeY1_8nxaI0vZuquioR-35" style="edgeStyle=orthogonalEdgeStyle;rounded=0;orthogonalLoop=1;jettySize=auto;html=1;entryX=0.42;entryY=-0.057;entryDx=0;entryDy=0;entryPerimeter=0;fontFamily=Georgia;fontSize=11;" edge="1" parent="moeY1_8nxaI0vZuquioR-61" source="moeY1_8nxaI0vZuquioR-17" target="moeY1_8nxaI0vZuquioR-31">
          <mxGeometry relative="1" as="geometry">
            <Array as="points">
              <mxPoint x="105" y="220" />
            </Array>
          </mxGeometry>
        </mxCell>
        <mxCell id="moeY1_8nxaI0vZuquioR-34" value="Amazon ECR" style="sketch=0;outlineConnect=0;fontColor=#232F3E;gradientColor=none;strokeColor=#ffffff;fillColor=#232F3E;dashed=0;verticalLabelPosition=middle;verticalAlign=bottom;align=center;html=1;whiteSpace=wrap;fontSize=10;fontStyle=1;spacing=3;shape=mxgraph.aws4.productIcon;prIcon=mxgraph.aws4.ecr;labelBackgroundColor=none;labelBorderColor=none;fontFamily=Georgia;" vertex="1" parent="moeY1_8nxaI0vZuquioR-61">
          <mxGeometry x="290" y="380" width="80" height="100" as="geometry" />
        </mxCell>
        <mxCell id="moeY1_8nxaI0vZuquioR-36" style="edgeStyle=orthogonalEdgeStyle;rounded=0;orthogonalLoop=1;jettySize=auto;html=1;fontFamily=Georgia;fontSize=11;" edge="1" parent="moeY1_8nxaI0vZuquioR-61" source="moeY1_8nxaI0vZuquioR-17" target="moeY1_8nxaI0vZuquioR-34">
          <mxGeometry relative="1" as="geometry">
            <Array as="points">
              <mxPoint x="220" y="430" />
            </Array>
          </mxGeometry>
        </mxCell>
        <mxCell id="moeY1_8nxaI0vZuquioR-38" value="" style="group" vertex="1" connectable="0" parent="moeY1_8nxaI0vZuquioR-61">
          <mxGeometry x="380" y="48" width="62.19999999999999" height="142" as="geometry" />
        </mxCell>
        <mxCell id="moeY1_8nxaI0vZuquioR-5" value="" style="sketch=0;aspect=fixed;html=1;points=[];align=center;image;fontSize=12;image=img/lib/mscae/Docker.svg;" vertex="1" parent="moeY1_8nxaI0vZuquioR-38">
          <mxGeometry y="91" width="62.2" height="51" as="geometry" />
        </mxCell>
        <mxCell id="moeY1_8nxaI0vZuquioR-8" value="" style="sketch=0;html=1;dashed=0;whitespace=wrap;fillColor=#2875E2;strokeColor=#ffffff;points=[[0.005,0.63,0],[0.1,0.2,0],[0.9,0.2,0],[0.5,0,0],[0.995,0.63,0],[0.72,0.99,0],[0.5,1,0],[0.28,0.99,0]];shape=mxgraph.kubernetes.icon;prIcon=kubelet" vertex="1" parent="moeY1_8nxaI0vZuquioR-38">
          <mxGeometry width="60" height="62" as="geometry" />
        </mxCell>
        <mxCell id="moeY1_8nxaI0vZuquioR-37" value="&lt;font style=&quot;font-size: 16px&quot; color=&quot;#ff9933&quot;&gt;&lt;b&gt;+&lt;/b&gt;&lt;/font&gt;" style="text;html=1;strokeColor=none;fillColor=none;align=center;verticalAlign=middle;whiteSpace=wrap;rounded=0;labelBackgroundColor=none;labelBorderColor=none;fontFamily=Georgia;fontSize=11;" vertex="1" parent="moeY1_8nxaI0vZuquioR-38">
          <mxGeometry x="2.1999999999999886" y="60" width="60" height="30" as="geometry" />
        </mxCell>
        <mxCell id="moeY1_8nxaI0vZuquioR-47" style="edgeStyle=orthogonalEdgeStyle;rounded=0;orthogonalLoop=1;jettySize=auto;html=1;entryX=1;entryY=0.25;entryDx=0;entryDy=0;fontFamily=Georgia;fontSize=13;fontColor=#2B2B2B;" edge="1" parent="moeY1_8nxaI0vZuquioR-61" source="moeY1_8nxaI0vZuquioR-17" target="moeY1_8nxaI0vZuquioR-37">
          <mxGeometry relative="1" as="geometry">
            <Array as="points">
              <mxPoint x="462" y="210" />
              <mxPoint x="462" y="116" />
            </Array>
          </mxGeometry>
        </mxCell>
        <mxCell id="moeY1_8nxaI0vZuquioR-39" value="Amazon EC2" style="sketch=0;outlineConnect=0;fontColor=#232F3E;gradientColor=none;strokeColor=#ffffff;fillColor=#232F3E;dashed=0;verticalLabelPosition=middle;verticalAlign=bottom;align=center;html=1;whiteSpace=wrap;fontSize=10;fontStyle=1;spacing=3;shape=mxgraph.aws4.productIcon;prIcon=mxgraph.aws4.ec2;labelBackgroundColor=none;labelBorderColor=none;fontFamily=Georgia;" vertex="1" parent="moeY1_8nxaI0vZuquioR-61">
          <mxGeometry x="385.55" y="260" width="51.1" height="80" as="geometry" />
        </mxCell>
        <mxCell id="moeY1_8nxaI0vZuquioR-48" style="edgeStyle=orthogonalEdgeStyle;rounded=0;orthogonalLoop=1;jettySize=auto;html=1;fontFamily=Georgia;fontSize=13;fontColor=#2B2B2B;" edge="1" parent="moeY1_8nxaI0vZuquioR-61" source="moeY1_8nxaI0vZuquioR-17" target="moeY1_8nxaI0vZuquioR-39">
          <mxGeometry relative="1" as="geometry">
            <Array as="points">
              <mxPoint x="460" y="220" />
              <mxPoint x="460" y="300" />
            </Array>
          </mxGeometry>
        </mxCell>
        <mxCell id="moeY1_8nxaI0vZuquioR-46" style="edgeStyle=orthogonalEdgeStyle;rounded=0;orthogonalLoop=1;jettySize=auto;html=1;fontFamily=Georgia;fontSize=13;fontColor=#2B2B2B;" edge="1" parent="moeY1_8nxaI0vZuquioR-61" source="moeY1_8nxaI0vZuquioR-40" target="moeY1_8nxaI0vZuquioR-39">
          <mxGeometry relative="1" as="geometry" />
        </mxCell>
        <mxCell id="moeY1_8nxaI0vZuquioR-40" value="Amazon CloudWatch" style="sketch=0;outlineConnect=0;fontColor=#232F3E;gradientColor=none;strokeColor=#ffffff;fillColor=#232F3E;dashed=0;verticalLabelPosition=middle;verticalAlign=bottom;align=center;html=1;whiteSpace=wrap;fontSize=10;fontStyle=1;spacing=3;shape=mxgraph.aws4.productIcon;prIcon=mxgraph.aws4.cloudwatch;labelBackgroundColor=none;labelBorderColor=none;fontFamily=Georgia;" vertex="1" parent="moeY1_8nxaI0vZuquioR-61">
          <mxGeometry x="301.08" y="260" width="50" height="80" as="geometry" />
        </mxCell>
        <mxCell id="moeY1_8nxaI0vZuquioR-43" value="" style="group" vertex="1" connectable="0" parent="moeY1_8nxaI0vZuquioR-61">
          <mxGeometry x="296.08" y="61.5" width="60" height="78.5" as="geometry" />
        </mxCell>
        <mxCell id="moeY1_8nxaI0vZuquioR-41" value="" style="sketch=0;pointerEvents=1;shadow=0;dashed=0;html=1;strokeColor=none;fillColor=#434445;aspect=fixed;labelPosition=center;verticalLabelPosition=bottom;verticalAlign=top;align=center;outlineConnect=0;shape=mxgraph.vvd.nsx_dashboard;labelBackgroundColor=none;labelBorderColor=none;fontFamily=Georgia;fontSize=16;fontColor=#FF9933;" vertex="1" parent="moeY1_8nxaI0vZuquioR-43">
          <mxGeometry x="3.920000000000016" width="52.15" height="48.5" as="geometry" />
        </mxCell>
        <mxCell id="moeY1_8nxaI0vZuquioR-42" value="&lt;font color=&quot;#2b2b2b&quot; style=&quot;font-size: 13px&quot; face=&quot;Garamond&quot;&gt;&lt;b&gt;ELK Dashboard&lt;/b&gt;&lt;/font&gt;" style="text;html=1;strokeColor=none;fillColor=none;align=center;verticalAlign=middle;whiteSpace=wrap;rounded=0;labelBackgroundColor=none;labelBorderColor=none;fontFamily=Georgia;fontSize=16;fontColor=#FF9933;" vertex="1" parent="moeY1_8nxaI0vZuquioR-43">
          <mxGeometry y="48.5" width="60" height="30" as="geometry" />
        </mxCell>
        <mxCell id="moeY1_8nxaI0vZuquioR-45" style="edgeStyle=orthogonalEdgeStyle;rounded=0;orthogonalLoop=1;jettySize=auto;html=1;entryX=0;entryY=0.25;entryDx=0;entryDy=0;fontFamily=Georgia;fontSize=13;fontColor=#2B2B2B;" edge="1" parent="moeY1_8nxaI0vZuquioR-61" source="moeY1_8nxaI0vZuquioR-41" target="moeY1_8nxaI0vZuquioR-37">
          <mxGeometry relative="1" as="geometry" />
        </mxCell>
        <mxCell id="moeY1_8nxaI0vZuquioR-53" style="edgeStyle=orthogonalEdgeStyle;rounded=0;orthogonalLoop=1;jettySize=auto;html=1;entryX=0;entryY=0.5;entryDx=0;entryDy=0;fontFamily=Garamond;fontSize=13;fontColor=#2B2B2B;" edge="1" parent="moeY1_8nxaI0vZuquioR-61" source="moeY1_8nxaI0vZuquioR-8" target="moeY1_8nxaI0vZuquioR-49">
          <mxGeometry relative="1" as="geometry">
            <Array as="points">
              <mxPoint x="410" y="20" />
            </Array>
          </mxGeometry>
        </mxCell>
        <mxCell id="moeY1_8nxaI0vZuquioR-58" style="edgeStyle=orthogonalEdgeStyle;rounded=0;orthogonalLoop=1;jettySize=auto;html=1;fontFamily=Garamond;fontSize=13;fontColor=#2B2B2B;" edge="1" parent="moeY1_8nxaI0vZuquioR-61" source="moeY1_8nxaI0vZuquioR-54" target="moeY1_8nxaI0vZuquioR-20">
          <mxGeometry relative="1" as="geometry">
            <Array as="points">
              <mxPoint x="23" y="80" />
              <mxPoint x="23" y="80" />
            </Array>
          </mxGeometry>
        </mxCell>
        <mxCell id="moeY1_8nxaI0vZuquioR-54" value="" style="sketch=0;aspect=fixed;pointerEvents=1;shadow=0;dashed=0;html=1;strokeColor=none;labelPosition=center;verticalLabelPosition=bottom;verticalAlign=top;align=center;fillColor=#00188D;shape=mxgraph.mscae.enterprise.client_application;labelBackgroundColor=none;labelBorderColor=none;fontFamily=Garamond;fontSize=13;fontColor=#2B2B2B;" vertex="1" parent="moeY1_8nxaI0vZuquioR-61">
          <mxGeometry y="6.220000000000006" width="45" height="28.8" as="geometry" />
        </mxCell>
        <mxCell id="moeY1_8nxaI0vZuquioR-59" style="edgeStyle=orthogonalEdgeStyle;rounded=0;orthogonalLoop=1;jettySize=auto;html=1;fontFamily=Garamond;fontSize=13;fontColor=#2B2B2B;" edge="1" parent="moeY1_8nxaI0vZuquioR-61" source="moeY1_8nxaI0vZuquioR-55" target="moeY1_8nxaI0vZuquioR-20">
          <mxGeometry relative="1" as="geometry">
            <Array as="points">
              <mxPoint x="70" y="65" />
              <mxPoint x="40" y="65" />
            </Array>
          </mxGeometry>
        </mxCell>
        <mxCell id="moeY1_8nxaI0vZuquioR-55" value="" style="sketch=0;outlineConnect=0;fontColor=#232F3E;gradientColor=none;fillColor=#232F3D;strokeColor=none;dashed=0;verticalLabelPosition=bottom;verticalAlign=top;align=center;html=1;fontSize=12;fontStyle=0;aspect=fixed;pointerEvents=1;shape=mxgraph.aws4.mobile_client;labelBackgroundColor=none;labelBorderColor=none;fontFamily=Garamond;" vertex="1" parent="moeY1_8nxaI0vZuquioR-61">
          <mxGeometry x="60" y="1.600000000000005" width="20" height="38.05" as="geometry" />
        </mxCell>
        <mxCell id="moeY1_8nxaI0vZuquioR-60" style="edgeStyle=orthogonalEdgeStyle;rounded=0;orthogonalLoop=1;jettySize=auto;html=1;fontFamily=Garamond;fontSize=13;fontColor=#2B2B2B;" edge="1" parent="moeY1_8nxaI0vZuquioR-61" source="moeY1_8nxaI0vZuquioR-57" target="moeY1_8nxaI0vZuquioR-20">
          <mxGeometry relative="1" as="geometry">
            <Array as="points">
              <mxPoint x="110" y="80" />
              <mxPoint x="60" y="80" />
            </Array>
          </mxGeometry>
        </mxCell>
        <mxCell id="moeY1_8nxaI0vZuquioR-57" value="" style="sketch=0;outlineConnect=0;fontColor=#232F3E;gradientColor=none;strokeColor=#ffffff;fillColor=#232F3E;dashed=0;verticalLabelPosition=middle;verticalAlign=bottom;align=center;html=1;whiteSpace=wrap;fontSize=10;fontStyle=1;spacing=3;shape=mxgraph.aws4.productIcon;prIcon=mxgraph.aws4.command_line_interface;labelBackgroundColor=none;labelBorderColor=none;fontFamily=Garamond;" vertex="1" parent="moeY1_8nxaI0vZuquioR-61">
          <mxGeometry x="100" width="40" height="39.65" as="geometry" />
        </mxCell>
        <mxCell id="moeY1_8nxaI0vZuquioR-63" style="edgeStyle=orthogonalEdgeStyle;rounded=0;orthogonalLoop=1;jettySize=auto;html=1;fontFamily=Garamond;fontSize=13;fontColor=#2B2B2B;" edge="1" parent="moeY1_8nxaI0vZuquioR-61" source="moeY1_8nxaI0vZuquioR-62" target="moeY1_8nxaI0vZuquioR-41">
          <mxGeometry relative="1" as="geometry" />
        </mxCell>
        <mxCell id="moeY1_8nxaI0vZuquioR-62" value="" style="points=[[0.35,0,0],[0.98,0.51,0],[1,0.71,0],[0.67,1,0],[0,0.795,0],[0,0.65,0]];verticalLabelPosition=bottom;sketch=0;html=1;verticalAlign=top;aspect=fixed;align=center;pointerEvents=1;shape=mxgraph.cisco19.user;fillColor=#005073;strokeColor=none;labelBackgroundColor=none;labelBorderColor=none;fontFamily=Garamond;fontSize=13;fontColor=#2B2B2B;" vertex="1" parent="moeY1_8nxaI0vZuquioR-61">
          <mxGeometry x="301.08" y="-10.35" width="50" height="50" as="geometry" />
        </mxCell>
        <mxCell id="moeY1_8nxaI0vZuquioR-70" value="&lt;font style=&quot;font-size: 15px&quot;&gt;&lt;b&gt;Client Libraries&lt;/b&gt;&lt;/font&gt;" style="text;html=1;strokeColor=none;fillColor=none;align=left;verticalAlign=middle;whiteSpace=wrap;rounded=0;labelBackgroundColor=#CCFFFF;labelBorderColor=none;fontFamily=Garamond;fontSize=16;fontColor=#2B2B2B;" vertex="1" parent="moeY1_8nxaI0vZuquioR-61">
          <mxGeometry x="277.78000000000003" y="180" width="104.45" height="30" as="geometry" />
        </mxCell>
        <mxCell id="moeY1_8nxaI0vZuquioR-65" style="edgeStyle=orthogonalEdgeStyle;rounded=0;orthogonalLoop=1;jettySize=auto;html=1;fontFamily=Garamond;fontSize=13;fontColor=#2B2B2B;" edge="1" parent="1" source="moeY1_8nxaI0vZuquioR-64" target="moeY1_8nxaI0vZuquioR-40">
          <mxGeometry relative="1" as="geometry">
            <mxPoint x="390" y="495" as="targetPoint" />
            <Array as="points">
              <mxPoint x="405" y="495" />
            </Array>
          </mxGeometry>
        </mxCell>
        <mxCell id="moeY1_8nxaI0vZuquioR-64" value="" style="points=[[0.35,0,0],[0.98,0.51,0],[1,0.71,0],[0.67,1,0],[0,0.795,0],[0,0.65,0]];verticalLabelPosition=bottom;sketch=0;html=1;verticalAlign=top;aspect=fixed;align=center;pointerEvents=1;shape=mxgraph.cisco19.user;fillColor=#005073;strokeColor=none;labelBackgroundColor=none;labelBorderColor=none;fontFamily=Garamond;fontSize=13;fontColor=#2B2B2B;" vertex="1" parent="1">
          <mxGeometry x="580" y="470" width="50" height="50" as="geometry" />
        </mxCell>
        <mxCell id="moeY1_8nxaI0vZuquioR-69" value="&lt;p&gt;&lt;span style=&quot;background-color: rgb(204 , 255 , 255)&quot;&gt;System Design:&amp;nbsp;Custom Event Tracking and Automatic Processing System&lt;br&gt;&lt;/span&gt;&lt;/p&gt;&lt;div style=&quot;text-align: center&quot;&gt;&lt;span style=&quot;background-color: rgb(204 , 255 , 255)&quot;&gt;# Rishant Gupta&lt;/span&gt;&lt;/div&gt;&lt;p&gt;&lt;/p&gt;" style="text;html=1;strokeColor=none;fillColor=none;align=left;verticalAlign=middle;rounded=0;labelBackgroundColor=none;labelBorderColor=none;fontFamily=Garamond;fontSize=16;fontColor=#2B2B2B;fontStyle=1" vertex="1" parent="1">
          <mxGeometry x="60" y="110" width="440" height="30" as="geometry" />
        </mxCell>
        <mxCell id="moeY1_8nxaI0vZuquioR-72" value="Text" style="text;html=1;align=center;verticalAlign=middle;resizable=0;points=[];autosize=1;strokeColor=none;fillColor=none;fontSize=15;fontFamily=Garamond;fontColor=#2B2B2B;" vertex="1" parent="1">
          <mxGeometry x="360" y="450" width="40" height="20" as="geometry" />
        </mxCell>
      </root>
    </mxGraphModel>
  </diagram>
</mxfile>
